<svg height="66" width="59" xmlns="http://www.w3.org/2000/svg"><g fill="none" fill-rule="evenodd"><path d="M53.978 5.284H49.97V3.851A2.855 2.855 0 0047.119 1h-.43a2.854 2.854 0 00-2.852 2.85v1.434H15.912V3.851A2.853 2.853 0 0013.062 1h-.43A2.854 2.854 0 009.78 3.85v1.434H5.772a4.7 4.7 0 00-4.694 4.694v50.334A4.693 4.693 0 005.766 65h48.218a4.693 4.693 0 004.688-4.688V9.978a4.7 4.7 0 00-4.694-4.694zm-8.266-1.433c0-.538.438-.976.976-.976h.43c.539 0 .977.438.977.976v1.433h-2.383zm-34.057 0c0-.538.438-.976.976-.976h.43c.539 0 .977.438.977.976v1.433h-2.383zm45.142 56.462a2.816 2.816 0 01-2.813 2.812H5.766a2.816 2.816 0 01-2.813-2.813v-.005a4.676 4.676 0 002.819.943h38.01a4.664 4.664 0 003.32-1.375l9.695-9.695zM46.145 58.18c.073-.303.113-.62.113-.945v-6.258c0-1.18.96-2.14 2.14-2.14h6.258c.326 0 .642-.04.946-.114zm10.652-39.498H15.766a.938.938 0 100 1.875h41.03v24.265c0 1.18-.96 2.14-2.14 2.14H48.4a4.02 4.02 0 00-4.016 4.015v6.258c0 1.18-.96 2.14-2.14 2.14H5.772a2.822 2.822 0 01-2.819-2.819v-36h9.063a.936.936 0 100-1.874H2.953V9.978a2.823 2.823 0 012.819-2.819H9.78v2.757c0 1.572 1.28 2.85 2.851 2.85a.938.938 0 100-1.874.977.977 0 01-.976-.976V7.159h32.182v2.757c0 1.572 1.28 2.85 2.851 2.85a.938.938 0 100-1.874.977.977 0 01-.976-.976V7.159h8.266a2.823 2.823 0 012.819 2.819zM23.034 49.13a3.783 3.783 0 002.694 1.116 3.785 3.785 0 002.693-1.116l2.662-2.662a.938.938 0 00-1.326-1.326l-2.662 2.662c-.365.365-.85.567-1.367.567s-1.003-.201-1.368-.567l-4.598-4.598c-.755-.754-.799-1.98-.098-2.732a1.929 1.929 0 012.784-.052l2.263 2.263a1.44 1.44 0 002.033 0l10.558-10.557c.365-.365.85-.567 1.367-.567s1.003.201 1.368.567c.365.365.566.85.566 1.367s-.2 1.003-.566 1.368l-7.57 7.57a.936.936 0 101.325 1.326l7.57-7.57a3.783 3.783 0 001.116-2.694 3.783 3.783 0 00-1.116-2.693 3.78 3.78 0 00-2.693-1.116 3.785 3.785 0 00-2.693 1.116L25.728 41.05l-1.954-1.953a3.778 3.778 0 00-2.76-1.115 3.78 3.78 0 00-2.722 1.214c-1.38 1.482-1.316 3.876.144 5.336z" fill="#000" fill-rule="nonzero" stroke="#fff" stroke-width=".5"/><path d="M57 48h-8.24a3 3 0 00-2.99 2.75L45 60z" fill="#dbb95a"/></g></svg>