<svg height="66" width="67" xmlns="http://www.w3.org/2000/svg"><g fill="none" fill-rule="evenodd"><g fill="#000" fill-rule="nonzero" stroke="#fff" stroke-width=".6"><path d="M54.865 34.863a.95.95 0 00-.95.95 1.207 1.207 0 01-2.412 0 .95.95 0 00-1.9 0 3.11 3.11 0 003.106 3.106 3.11 3.11 0 003.106-3.106.95.95 0 00-.95-.95z"/><path d="M63.782 35.018l-2.674-.856a1.12 1.12 0 01-.722-.732 17.248 17.248 0 00-2.527-4.999 18.376 18.376 0 00-1.689-1.992c.395-1.73.61-3.689.581-5.38-.04-2.42-.523-3.84-1.478-4.34-.515-.27-2.08-1.09-10.554 2.789-.2.092-.388.205-.562.334a38.166 38.166 0 00-1.742-.423l-.215-.044a12.965 12.965 0 001.163-4.81.95.95 0 00-1.899-.086 11.03 11.03 0 01-3.23 7.327 11.002 11.002 0 01-4.001 2.556 27.51 27.51 0 00-7.647 0 11.018 11.018 0 01-4.001-2.556 10.995 10.995 0 01-3.241-7.825c0-2.956 1.15-5.735 3.24-7.825s4.87-3.241 7.826-3.241c2.955 0 5.734 1.15 7.824 3.241.84.84 1.534 1.798 2.063 2.848a.95.95 0 101.697-.854 12.978 12.978 0 00-2.416-3.338c-2.448-2.449-5.705-3.797-9.168-3.797s-6.72 1.348-9.169 3.797a12.887 12.887 0 00-3.797 9.169c0 3.463 1.349 6.719 3.797 9.168a13 13 0 002.288 1.823h.001c-.59.153-1.177.326-1.757.52a.95.95 0 10.603 1.802 25.48 25.48 0 0116.068 0 .95.95 0 001.201-.601.949.949 0 00-.599-1.202 27.794 27.794 0 00-1.756-.52 12.911 12.911 0 003.944-3.855 34.44 34.44 0 011.795.397c-.01.041-.021.083-.03.125-.464 2.198-.433 4.143.09 5.779.469 1.47 1.317 2.662 2.518 3.541 1.417 1.036 3.127 1.484 4.676 1.484 1.166 0 2.241-.254 3.03-.701.893-.506 1.641-1.571 2.234-3.171.273.32.533.646.777.981a15.332 15.332 0 012.25 4.45 3.02 3.02 0 001.955 1.97l2.673.857c.702.225 1.173.87 1.173 1.607v4.433c0 .737-.471 1.383-1.173 1.608l-4.307 1.38a2.93 2.93 0 00-1.643 1.333c-1.692 2.925-4.353 5.345-7.909 7.194-.41.214-.695.596-.78 1.05l-1.38 7.305a.428.428 0 01-.42.347h-4.486a.428.428 0 01-.42-.347l-.763-4.038a1.493 1.493 0 00-1.698-1.2 39.73 39.73 0 01-5.918.44c-1.483 0-2.948-.083-4.353-.246a1.504 1.504 0 00-1.646 1.208l-.727 3.836a.427.427 0 01-.419.347h-4.486a.428.428 0 01-.42-.35l-1.328-6.9a1.49 1.49 0 00-.767-1.037c-6.061-3.236-9.265-8.642-9.265-15.634 0-3.532.773-6.656 2.297-9.284 1.422-2.453 3.5-4.481 6.174-6.028a.95.95 0 00-.951-1.645c-5.186 3-8.314 7.629-9.175 13.507l-.274-.025a4.739 4.739 0 00-.349-1.896c-.55-1.37-1.683-2.359-2.884-2.519-.946-.127-1.847.275-2.472 1.101-.906 1.198-.759 2.145-.475 2.73.478.985 1.708 1.683 3.75 2.121a4.08 4.08 0 01-.186.253c-1.206 1.513-2.627 1.847-3.55 1.879A.997.997 0 001 40.35v.005c0 .533.42.967.953.992.068.003.14.005.214.005 1.167 0 3.04-.43 4.84-2.688.285-.356.516-.732.694-1.12.18.02.352.037.517.053v-.001c-.033.514-.05 1.037-.05 1.568 0 3.956.942 7.483 2.802 10.484 1.715 2.766 4.17 5.032 7.3 6.735l1.291 6.708a2.329 2.329 0 002.286 1.894h4.486a2.328 2.328 0 002.286-1.894l.657-3.469c1.363.145 2.775.218 4.202.218 1.959 0 3.915-.136 5.82-.406l.693 3.657a2.329 2.329 0 002.286 1.894h4.486a2.328 2.328 0 002.286-1.894l1.343-7.113c3.796-2.007 6.656-4.643 8.505-7.837.133-.23.338-.4.577-.476l4.308-1.38a3.576 3.576 0 002.493-3.417v-4.433a3.576 3.576 0 00-2.493-3.417zm-9.073-11.29c-.366 3.127-1.347 5.802-2.332 6.36-1.12.634-3.706.757-5.648-.664-1.944-1.422-2.591-3.979-1.871-7.395.072-.343.316-.64.652-.794 4.755-2.177 7.497-2.889 8.516-2.889.154 0 .268.017.345.046.305.327.707 2.18.338 5.336zM3.667 34.275c-.098-.203.134-.559.281-.754.233-.308.448-.37.61-.37.035 0 .067.002.096.006.437.058 1.049.54 1.373 1.345.076.19.175.504.199.896-1.315-.273-2.337-.665-2.559-1.123z"/></g><circle cx="30.55" cy="13.95" fill="#dbb95a" r="8.25" stroke="#000" stroke-width="1.2"/></g></svg>