<svg height="66" width="62" xmlns="http://www.w3.org/2000/svg"><g fill="none" fill-rule="evenodd"><path d="M21.67 1c8.833 0 16.02 7.186 16.02 16.02v4.107a14.873 14.873 0 018.768-3.007 14.859 14.859 0 0110.639 4.227 14.858 14.858 0 014.533 10.512c.12 8.246-6.492 15.053-14.738 15.172-.075.002-.15.002-.223.002-1.805 0-3.562-.32-5.208-.93v16.96a.938.938 0 01-1.875-.001v-17.81a14.986 14.986 0 01-3.333-2.448 15.3 15.3 0 01-1.148-1.247l-.901 4.53a1.56 1.56 0 01-.865 1.103l-2.17 1.016.737 1.578a1.553 1.553 0 01-.594 1.981l-8.705 5.353v5.944a.938.938 0 01-1.875 0v-5.944l-8.706-5.353a1.552 1.552 0 01-.594-1.98l.736-1.58L10 48.192a1.563 1.563 0 01-.866-1.105L7.28 37.77a5.724 5.724 0 00-3.528 5.26v21.032a.938.938 0 11-1.875 0V43.03a7.59 7.59 0 012.284-5.402c-2.383-2.018-2.93-4.254-3.035-5.47a2.173 2.173 0 011.805-2.315l.092-.016c1.522-.284 2.626-1.645 2.626-3.236V17.02C5.65 8.186 12.836 1 21.67 1zm-9.59 35.319l-3 .886 1.861 9.356 2.87 1.343c.469.22.671.777.453 1.246l-1.012 2.168 6.483 3.986L12.08 36.32zm19.18-.004l-4.222 10.47a.939.939 0 11-1.74-.701l1.608-3.985-5.237-2.846-5.236 2.847 5.236 12.987 2.043-5.067a.938.938 0 011.739.701l-1.848 4.583 6.483-3.986-1.011-2.168a.935.935 0 01.452-1.245l2.87-1.344 1.218-6.123.01-.04a14.757 14.757 0 01-1.499-3.828l-.867-.255zm15.42-16.321l-.195.001c-7.212.105-12.995 6.058-12.89 13.27a12.988 12.988 0 003.965 9.194 13.004 13.004 0 009.305 3.698c7.212-.105 12.995-6.058 12.89-13.271a12.992 12.992 0 00-3.965-9.194 12.99 12.99 0 00-9.11-3.698zm-.003 2.424c5.806 0 10.57 4.68 10.654 10.503a10.58 10.58 0 01-3.012 7.58 10.586 10.586 0 01-7.49 3.232h-.156c-5.806.001-10.57-4.678-10.654-10.502a10.61 10.61 0 011.702-5.935.936.936 0 111.574 1.018 8.748 8.748 0 00-1.402 4.89c.07 4.798 3.996 8.654 8.78 8.654h.13a8.726 8.726 0 006.172-2.663 8.724 8.724 0 002.481-6.247c-.07-4.799-3.996-8.655-8.78-8.655l-.129.001a8.772 8.772 0 00-4.514 1.325.936.936 0 11-.992-1.59 10.646 10.646 0 015.48-1.61h.156zM15.718 35.245l-1.831.54 1.84 4.565 4.15-2.256-4.159-2.85zm11.903 0l-4.159 2.849 4.15 2.255 1.84-4.566-1.831-.539zM16.818 32.06v1.664l4.851 3.325 4.851-3.325V32.14a9.042 9.042 0 01-4.788 1.366 9.048 9.048 0 01-4.914-1.446zm32.655-2.307a.937.937 0 111.539 1.071l-1.503 2.161h1.146v-.07a.938.938 0 011.875.001v2.945a.938.938 0 01-1.875 0V34.86h-2.94a.936.936 0 01-.77-1.473zm-5.71-.401l.065.002a2.456 2.456 0 012.222 1.632c.356.964.104 2.04-.642 2.74l-1.279 1.198h1.506a.938.938 0 110 1.875h-3.877a.938.938 0 01-.642-1.622l3.01-2.82a.658.658 0 00.165-.721.599.599 0 00-.548-.409l-.047-.001c-.552 0-1.001.45-1.001 1.001a.938.938 0 01-1.875 0 2.879 2.879 0 013.008-2.873zM21.668 2.875c-7.8 0-14.145 6.345-14.145 14.145v9.571c0 2.494-1.749 4.63-4.158 5.08l-.125.021c-.151.026-.26.159-.247.303.102 1.182.663 2.894 2.706 4.466a7.448 7.448 0 011.595-.684l7.648-2.258V30.54l.004-.077a9.067 9.067 0 01-2.318-6.06v-.295a4.2 4.2 0 01-3.627-4.154c0-1.237.54-2.394 1.468-3.186v-1.836a.937.937 0 011.875 0v1.364h4.03a.938.938 0 010 1.875h-1.871v6.232c0 3.986 3.243 7.228 7.228 7.228a7.236 7.236 0 007.228-7.228v-6.232h-8.335a.938.938 0 010-1.875h1.513v-2.843a.938.938 0 111.875 0v2.843h2.063v-4.261a.938.938 0 011.876 0v4.261h3.167v-1.364a.937.937 0 111.875 0v1.836a4.179 4.179 0 011.468 3.186 4.199 4.199 0 01-3.627 4.154v.295c0 2.392-.929 4.57-2.443 6.196l.003.066v2.852l3.392.997a14.911 14.911 0 014.027-11.712V17.02c0-7.8-6.345-14.145-14.145-14.145zm1.878 23.46a.937.937 0 111.579 1.011 4.062 4.062 0 01-3.434 1.882 4.06 4.06 0 01-3.433-1.883.937.937 0 111.579-1.01c.408.638 1.101 1.018 1.854 1.018s1.447-.38 1.855-1.018zm2.133-6.475c.518.01.929.439.918.956l-.012.623a.94.94 0 01-.938.918h-.02a.937.937 0 01-.917-.957l.013-.622a.937.937 0 01.956-.918zm-8.05 0c.517.01.928.439.917.956l-.013.623a.938.938 0 01-.937.918h-.02a.94.94 0 01-.918-.957l.013-.622a.94.94 0 01.957-.918zm14.12-1.688h-.915V22.2a2.314 2.314 0 00.915-4.028zm-19.121 0h-.915a2.314 2.314 0 00.915 4.028z" fill="#000" fill-rule="nonzero" stroke="#fff" stroke-width=".7"/><g fill="#dbb95a"><path d="M13 35.4l2.4 6.4 5.6-4-4.8-3.2zM30.6 35.4l-2.4 6.4-5.6-4 4.8-3.2z"/></g></g></svg>