<svg height="66" width="72" xmlns="http://www.w3.org/2000/svg"><g fill="none" fill-rule="evenodd"><path d="M32.434 33.96a1.036 1.036 0 110 2.073H28.7a4.353 4.353 0 00-4.349 4.348v3.797a5.072 5.072 0 014.026 4.956v3.85h33.118v-3.85a5.071 5.071 0 014.027-4.956v-3.797a4.353 4.353 0 00-4.349-4.348H36.58a1.036 1.036 0 010-2.073h24.593a6.43 6.43 0 016.422 6.421v3.797a5.072 5.072 0 014.026 4.956v14.762c0 .572-.464 1.036-1.037 1.036h-15.18a1.036 1.036 0 010-2.073h6.091v-7.803H28.377v7.803h22.881a1.037 1.037 0 110 2.073h-31.97a1.036 1.036 0 01-1.036-1.036V49.134a5.071 5.071 0 014.026-4.956v-3.797c0-3.54 2.88-6.421 6.422-6.421zM15.586 5.28c.483 0 .903.334 1.01.805l3.635 15.899a1.047 1.047 0 01-1.01 1.268h-2.82v11.727a1.037 1.037 0 01-2.074 0V23.252h-2.662v35.873h1.017a4.62 4.62 0 014.616 4.615v.156c0 .572-.464 1.036-1.037 1.036H4.996a1.036 1.036 0 01-1.037-1.036v-.156a4.62 4.62 0 014.616-4.616h1.017V23.252H2.036a1.047 1.047 0 01-1.01-1.268L4.66 6.085a1.036 1.036 0 011.01-.805zm7.729 40.864a2.993 2.993 0 00-2.99 2.99v13.725h5.98V49.134a2.994 2.994 0 00-2.99-2.99zm43.243 0a2.994 2.994 0 00-2.99 2.99v13.725h5.98V49.134a2.994 2.994 0 00-2.99-2.99zM12.682 61.198H8.575a2.547 2.547 0 00-2.386 1.661h8.878a2.547 2.547 0 00-2.385-1.661zm38.576-60.13a1.036 1.036 0 110 2.073H30.945l1.919 1.918h24.145l1.919-1.918h-3.524a1.036 1.036 0 010-2.074h6.026c.564 0 1.037.473 1.037 1.037v24.358c0 .564-.473 1.036-1.037 1.036H28.442a1.048 1.048 0 01-1.036-1.036V2.104c0-.563.472-1.037 1.036-1.037zm5.75 22.438H32.865l-1.92 1.92h27.984l-1.92-1.92zm3.386-18.9l-1.92 1.92V22.04l1.92 1.92V4.605zm-30.915 0V23.96l1.919-1.919V6.525l-1.92-1.919zm22.639 8.687a.852.852 0 00-1.258-.003l-5.603 6.224 1.727 1.92h9.418v-3.428zm-13.14 2.345a.659.659 0 00-.971 0l-4.536 5.04v.755h10.724zM14.76 7.353H6.497l-3.16 13.826H17.92zm41.642-.22H33.47v10.446l2.995-3.328a2.746 2.746 0 012.027-.902c.771 0 1.51.33 2.026.902l3.343 3.714 5.457-6.062c1.142-1.268 3.195-1.268 4.336 0l2.747 3.021V7.132zm-12.54 1.13c1.614 0 2.927 1.314 2.927 2.928s-1.313 2.927-2.927 2.927-2.927-1.313-2.927-2.927 1.313-2.927 2.927-2.927zm0 2.074a.855.855 0 000 1.708.855.855 0 000-1.708z" fill="#000" fill-rule="nonzero" stroke="#fff" stroke-width=".7"/><path d="M33 19.4v3.2h24.8v-4.8l-6.4-5.6-7.2 7.2-5.6-4.8z" fill="#dbb95a"/></g></svg>