<svg height="66" width="59" xmlns="http://www.w3.org/2000/svg"><g fill="none" fill-rule="evenodd"><path d="M46.547 40.788c6.675 0 12.106 5.43 12.106 12.106 0 6.298-4.835 11.488-10.988 12.054-.174.034-.35.052-.523.052h-.595c-6.675 0-12.106-5.43-12.106-12.106 0-6.675 5.43-12.106 12.106-12.106zM35.668 1.001l.016.001.033.001a.882.882 0 01.115.015h.004c.04.008.078.02.116.032l.03.011a.96.96 0 01.104.045l.008.004c.035.019.07.041.102.065l.026.018c.032.025.064.052.094.081l13.302 13.302c.029.03.056.061.08.094l.02.025a.985.985 0 01.064.103l.003.006c.018.034.033.07.047.106l.01.029a.984.984 0 01.047.237l.001.031.002.032V37.71a.938.938 0 01-1.875 0V16.176H37.289a2.576 2.576 0 01-2.573-2.573V2.875H3.75a.877.877 0 00-.875.875v58.5c0 .482.393.875.875.875h34.108a.938.938 0 010 1.875H3.75A2.752 2.752 0 011 62.25V3.75A2.752 2.752 0 013.75 1h31.918zm10.88 41.662c-5.642 0-10.232 4.59-10.232 10.231s4.59 10.231 10.231 10.231c.161 0 .32-.005.48-.012.077-.004.155-.01.233-.016 5.31-.367 9.518-4.802 9.518-10.203 0-5.642-4.59-10.23-10.23-10.23zm5.184 5.282a.937.937 0 011.439 1.202l-7.015 8.392a.938.938 0 01-.645.334c-.025.002-.05.002-.074.002a.937.937 0 01-.616-.23l-4.812-4.196a.938.938 0 011.233-1.413l4.09 3.566zm-24.985 5.742a.937.937 0 110 1.875H7.917a.938.938 0 010-1.875zm4.092-5.817a.938.938 0 010 1.875H7.917a.938.938 0 010-1.875zm3.275-5.816a.938.938 0 010 1.875H7.917a.938.938 0 010-1.875zm7.865-21.367c1.065 0 1.933.866 1.933 1.932v10.96a1.935 1.935 0 01-1.933 1.933H8.913A1.934 1.934 0 016.98 33.58V22.62c0-1.066.867-1.933 1.933-1.933zm-8.465 1.875h-24.6a.057.057 0 00-.059.057v10.96c0 .032.026.058.058.058h24.601zm8.465 0h-6.59v11.075h6.59a.058.058 0 00.058-.057V22.62a.057.057 0 00-.058-.058zM11.96 5.86c.226 0 .453.16.453.332v.346c.864.027 2.273.28 2.273 1.05 0 .306-.213.918-.705.918-.372 0-.678-.425-1.568-.492v2.34c1.183.439 2.512 1.037 2.512 2.845 0 1.636-1.023 2.58-2.512 2.819v.412c0 .173-.226.333-.453.333-.253 0-.452-.16-.452-.333v-.372c-1.609-.04-2.819-.904-2.819-1.648 0-.373.333-.931.745-.931.505 0 .904.864 2.074.997V11.83c-1.21-.452-2.58-.97-2.58-2.672 0-1.69 1.25-2.42 2.58-2.593v-.373c0-.172.2-.332.452-.332zm.346 6.289v2.314c.585-.12.997-.466.997-1.09 0-.652-.426-.971-.997-1.224zM36.59 4.2v9.403c0 .385.313.698.698.698h9.402l-10.1-10.1zM11.616 8.056c-.665.106-1.064.425-1.064.93 0 .586.452.838 1.064 1.077z" fill="#000" fill-rule="nonzero" stroke="#fff" stroke-width=".5"/><path d="M36.2 2.6v12h11.2z" fill="#dbb95a"/></g></svg>