<svg height="66" width="66" xmlns="http://www.w3.org/2000/svg"><g fill="none" fill-rule="evenodd"><path d="M32.993 1C50.642 1 65 15.358 65 33.007c0 .518-.42.938-.938.938h-3.626c-.234 6.973-3.065 13.501-8.035 18.471a.935.935 0 01-1.325 0l-2.923-2.922a22.222 22.222 0 01-14.223 5.901v1.55a.937.937 0 11-1.875 0v-6.607c-8.825-.472-15.921-7.567-16.393-16.393H2.889c.233 7.706 3.336 14.908 8.797 20.369 5.46 5.46 12.663 8.564 20.37 8.797v-1.773a.937.937 0 111.874 0v2.724c0 .518-.42.938-.937.938-8.56 0-16.597-3.324-22.633-9.36S1 41.566 1 33.007c0-.517.42-.937.938-.937h8.677a22.238 22.238 0 016.533-14.908 22.23 22.23 0 0114.907-6.532V8.421a.937.937 0 011.875 0v7.254c8.826.473 15.922 7.568 16.394 16.394H63.11C62.624 16.197 49.803 3.376 33.93 2.89v1.155a.938.938 0 01-1.876 0V1.938c0-.518.42-.938.938-.938zm11.585 44.919a17.287 17.287 0 01-10.648 4.42v3.18a20.356 20.356 0 0012.897-5.351zm13.983-11.974h-8.237a17.292 17.292 0 01-4.42 10.648l5.823 5.822c4.212-4.523 6.613-10.309 6.834-16.47zm-26.506-21.44a20.374 20.374 0 00-13.582 5.983A20.379 20.379 0 0012.49 32.07h3.172a17.157 17.157 0 013.52-9.564.936.936 0 111.491 1.136 15.333 15.333 0 00-3.162 9.365c0 8.537 6.945 15.482 15.482 15.482 8.536 0 15.481-6.945 15.481-15.481 0-8.537-6.945-15.482-15.481-15.482a15.321 15.321 0 00-9.373 3.168.937.937 0 01-1.138-1.491 17.172 17.172 0 019.573-3.527zm.938 32.014c.518 0 .937.42.937.938v.812a.937.937 0 11-1.875 0v-.812c0-.518.42-.938.938-.938zm-7.037-1.199a.936.936 0 011.28-.343c.45.259.603.832.344 1.28l-.406.704a.94.94 0 01-1.281.343.937.937 0 01-.343-1.28zm12.793-.343a.938.938 0 011.28.343l.406.703a.937.937 0 11-1.624.937l-.405-.702a.935.935 0 01.343-1.28zM21.742 38.42a.937.937 0 01.938 1.623l-.703.407a.937.937 0 01-.938-1.624zm21.22.343a.938.938 0 011.281-.343l.703.406a.936.936 0 01-.469 1.75c-.16 0-.32-.04-.468-.126l-.703-.406a.936.936 0 01-.343-1.28zm-9.97-15.03c.519 0 .938.42.938.938v7.147a1.515 1.515 0 01-1.499 2.596l-5.095 2.941a.935.935 0 01-1.28-.343.935.935 0 01.343-1.28l5.095-2.942c.057-.393.264-.737.561-.972V24.67c0-.517.42-.937.938-.937zM20.544 32.07a.938.938 0 110 1.875h-.812a.937.937 0 010-1.875zm25.711 0a.938.938 0 110 1.875h-.812a.937.937 0 010-1.875zm-25.558-6.162a.936.936 0 011.28-.343l.704.406a.937.937 0 11-.938 1.623l-.703-.405a.938.938 0 01-.343-1.281zm23.313-.343a.936.936 0 11.937 1.623l-.703.406a.938.938 0 11-.937-1.623zM25.893 20.71a.935.935 0 011.28.343l.407.703a.937.937 0 11-1.624.937l-.406-.703a.937.937 0 01.343-1.28zm12.919.343a.936.936 0 111.623.937l-.406.703a.936.936 0 01-1.28.343.936.936 0 01-.343-1.28zm-5.82-2.246c.518 0 .938.42.938.938v.812a.937.937 0 11-1.875 0v-.812c0-.518.42-.938.938-.938z" fill="#000" fill-rule="nonzero" stroke="#fff" stroke-width=".5"/><path d="M45 45l6.4 6.4c5.867-5.867 8.533-12 8-18.4h-9.6l-1.6 7.2z" fill="#dbb95a"/></g></svg>