<svg height="66" width="66" xmlns="http://www.w3.org/2000/svg"><g fill="none" fill-rule="evenodd"><path d="M38.188 1.271a14.478 14.478 0 014.523-.081l1.025.143a.94.94 0 01.81.932v4.824a.94.94 0 01-1.071.932l-1.024-.143a12.547 12.547 0 00-3.935.071 14.505 14.505 0 01-3.482.189l-.655-.043v2.46a11.448 11.448 0 0110.1 9.693h1.287c.882 0 1.6.718 1.6 1.6v2.51c0 .883-.718 1.6-1.6 1.6h-1.159v5.828h5.373a.941.941 0 110 1.882h-5.373v1.946h15.496v-1.946h-6.358a.94.94 0 110-1.882h6.64c.882 0 1.6.718 1.6 1.6v2.51c0 .818-.618 1.494-1.411 1.588v10.18c1.255.362 2.357 1.543 3.162 3.416.863 2.01 1.339 4.685 1.339 7.533 0 2.061-.26 3.484-.827 4.456h.062a.94.94 0 110 1.882H1.94a.94.94 0 01-.048-1.88c-.567-.972-.828-2.395-.828-4.458 0-5.72 1.93-10.164 4.612-10.946V37.483a1.602 1.602 0 01-1.411-1.588v-2.51c0-.882.718-1.6 1.6-1.6h15.778v-5.827h-1.159c-.882 0-1.6-.718-1.6-1.6v-2.51c0-.883.718-1.6 1.6-1.6h1.288a11.477 11.477 0 0110.724-9.745V2.264a.942.942 0 011.004-.939l1.657.11c1.012.068 2.032.013 3.03-.164zm-7.776 43.765h-5.304V56.74a4.964 4.964 0 011.643 6.14h3.661zM5.677 49.744c-1.416 1.032-2.73 4.487-2.73 8.867 0 2.008.274 3.297.813 3.832.385.38.994.436 1.917.437zm53.014-12.249H44.607v2.093h2.98c.87 0 1.58.709 1.58 1.58v2.29c0 .87-.71 1.579-1.58 1.579h-.705V56.74a4.968 4.968 0 011.642 6.141h10.167zM22.24 57.707a3.09 3.09 0 00-3.087 3.086c0 .787.291 1.523.813 2.087h4.547c.522-.564.813-1.3.813-2.087a3.089 3.089 0 00-3.086-3.086zm12.03-12.67h-1.975V62.88h1.974V45.037zm9.743 12.67a3.089 3.089 0 00-3.086 3.086c0 .787.291 1.523.813 2.087h4.547c.522-.564.813-1.3.813-2.087a3.09 3.09 0 00-3.087-3.086zm-2.869-12.67h-4.992V62.88h3.35a4.966 4.966 0 011.642-6.141zm-19.5-7.542H7.56v25.386h10.166a4.968 4.968 0 011.643-6.141V45.037h-.705c-.87 0-1.58-.709-1.58-1.58v-2.29c0-.87.71-1.579 1.58-1.579h2.98zm38.93 12.249v13.135c.862-.005 1.438-.072 1.806-.436.54-.535.813-1.824.813-3.832 0-4.494-1.256-7.855-2.618-8.867zm-47.475 1.934a3.376 3.376 0 013.373 3.372v4.467c0 .52-.422.941-.942.941h-4.862a.94.94 0 01-.941-.941V55.05a3.376 3.376 0 013.372-3.372zm40.323 0a3.376 3.376 0 013.372 3.372v4.467a.94.94 0 01-.94.941h-4.863a.94.94 0 01-.941-.941V55.05a3.376 3.376 0 013.372-3.372zm0 1.882c-.821 0-1.49.669-1.49 1.49v3.526h2.98V55.05c0-.821-.668-1.49-1.49-1.49zm-40.323 0c-.821 0-1.49.669-1.49 1.49v3.526h2.98V55.05c0-.821-.668-1.49-1.49-1.49zM45 45.037h-1.974v10.886a5.029 5.029 0 011.974 0zm-21.773 0h-1.974v10.886a5.013 5.013 0 011.974 0zm30.195-3.234a3.376 3.376 0 013.372 3.372v4.467a.94.94 0 01-.94.941h-4.863a.94.94 0 01-.941-.941v-4.467a3.376 3.376 0 013.372-3.372zm-40.323 0a3.376 3.376 0 013.373 3.372v4.467c0 .52-.422.941-.942.941h-4.862a.94.94 0 01-.941-.941v-4.467a3.376 3.376 0 013.372-3.372zm40.323 1.882c-.821 0-1.49.669-1.49 1.49v3.526h2.98v-3.526c0-.821-.668-1.49-1.49-1.49zm-40.323 0c-.821 0-1.49.669-1.49 1.49v3.526h2.98v-3.526c0-.821-.668-1.49-1.49-1.49zm29.627-17.727h-19.2v13.63h3.896a.942.942 0 010 1.883h-8.455v1.683h28.317v-1.683H31.187a.941.941 0 010-1.882h11.538V25.957zm-9.371 1.673a4.856 4.856 0 014.85 4.85c0 2.673-2.176 4.849-4.85 4.849s-4.85-2.175-4.85-4.85a4.856 4.856 0 014.85-4.85zm-11.71 6.036H6.148v1.946h15.496v-1.946zm11.71-4.154c-1.636 0-2.967 1.331-2.967 2.967s1.33 2.968 2.967 2.968a2.97 2.97 0 002.967-2.968 2.97 2.97 0 00-2.967-2.967zm0 .71a.94.94 0 01.941.941v.562h.132c.52 0 .94.421.94.941s-.42.941-.94.941h-.99a.939.939 0 01-.705-.32.939.939 0 01-.32-.705v-1.419c0-.52.422-.941.942-.941zm-.229-17.857a9.597 9.597 0 00-9.444 7.881h3.976a.941.941 0 01.001 1.882h-6.89v1.946h24.716V22.13H31.422a.941.941 0 010-1.883H42.57a9.573 9.573 0 00-9.445-7.88zm9.326-9.313a12.607 12.607 0 00-3.935.072c-1.148.203-2.32.266-3.483.189l-.654-.044v2.937l.78.052c1.011.067 2.03.012 3.03-.164a14.445 14.445 0 014.475-.089V3.083z" fill="#000" fill-rule="nonzero" stroke="#fff" stroke-width=".64"/><path d="M33.8 2.6v4h9.6v-4z" fill="#dbb95a"/></g></svg>