<svg height="66" width="63" xmlns="http://www.w3.org/2000/svg"><g fill="none" fill-rule="evenodd"><g fill="#000" fill-rule="nonzero" stroke="#fff" stroke-width=".9"><path d="M29.826 62.753H11.263a7.88 7.88 0 01-4.726-1.561 7.88 7.88 0 01-2.868-4.068 7.999 7.999 0 01-.264-3.428l.571-4.013a1.124 1.124 0 10-2.224-.317L1.18 53.38a10.257 10.257 0 00.34 4.398 10.113 10.113 0 003.678 5.219A10.117 10.117 0 0011.263 65h18.563a1.123 1.123 0 000-2.247z"/><path d="M61.97 56.037l-3.586-2.684-.289-4.47a1.123 1.123 0 00-.448-.827l-3.586-2.685-.289-4.47a1.115 1.115 0 00-.133-.462l-2.86-5.282.102-.055c.546-.296.748-.977.453-1.523l-3.002-5.543a14.715 14.715 0 001.594-6.278 1.125 1.125 0 00-1.095-1.152 1.118 1.118 0 00-1.152 1.095 12.43 12.43 0 01-1.602 5.784c-.19.337-.194.748-.01 1.088l2.756 5.088-5.26 2.85-1.976 1.07-3.225 1.746-.003.002-.101.054-2.756-5.088a1.123 1.123 0 00-.916-.586c-4.273-.271-8.039-2.675-10.073-6.432a12.25 12.25 0 01-.977-9.385 12.24 12.24 0 015.447-7.04c.457 1.032.83 2.015 1.107 2.831a4.7 4.7 0 00-1.488 2.272 4.726 4.726 0 108.684-.903 4.732 4.732 0 00-5.17-2.364 38.218 38.218 0 00-1.122-2.813 12.231 12.231 0 017.873-.286 12.243 12.243 0 017.327 5.946c.376.693.686 1.422.921 2.167a1.123 1.123 0 102.143-.677 14.602 14.602 0 00-1.088-2.56 14.479 14.479 0 00-8.662-7.03 14.465 14.465 0 00-9.498.409 26.362 26.362 0 00-.457-.832c-1.854-3.24-4.9-6.88-8.889-5.827-2.046.54-2.88 1.785-3.219 2.734-.975 2.729.84 6.518 2.162 8.746h-5.302c-4.175 0-7.768 3.117-8.359 7.251l-3.72 26.122a1.123 1.123 0 102.224.317l3.721-26.12c.433-3.035 3.07-5.322 6.134-5.322h8a14.82 14.82 0 00-.922 2.34 14.477 14.477 0 001.154 11.095 14.499 14.499 0 0011.278 7.551l3.002 5.543a1.126 1.126 0 001.523.453l.103-.056 4.239 7.827.573 4.03a7.94 7.94 0 01-.264 3.428 7.894 7.894 0 01-7.593 5.63H33.57a1.123 1.123 0 100 2.246h1.827c4.514 0 8.43-2.902 9.743-7.222.273-.9.419-1.828.437-2.765l4.37 8.07c.157.288.432.494.752.563l6.17 1.328a1.12 1.12 0 001.198-.518l4.19-6.939a1.123 1.123 0 00-.288-1.48zM30.755 16.596a2.463 2.463 0 011.196-1.473 2.48 2.48 0 013.359.999 2.482 2.482 0 01-.999 3.36 2.482 2.482 0 01-3.36-1 2.468 2.468 0 01-.196-1.886zm-8.494-3.93c-1.523-2.26-3.393-6.054-2.7-7.992.149-.414.484-1 1.677-1.316 2.652-.7 5.051 2.257 6.762 5.468a14.487 14.487 0 00-4.316 3.84H22.26zM56.6 62.4l-1.645-.136-3.277-.706-11.26-20.789 2.239-1.212 1.976-1.07 4.17-2.259 2.743 5.064.306 4.741c.022.328.185.63.448.827l3.586 2.685.29 4.47c.02.328.184.63.447.827l3.186 2.385z"/></g><path d="M39.75 32.75l16.5 30.5" stroke="#000" stroke-linecap="round" stroke-width="1.3"/><path d="M39 40l4-2 13 25h-5z" fill="#dbb95a"/></g></svg>