<svg height="66" width="71" xmlns="http://www.w3.org/2000/svg"><g fill="none" fill-rule="evenodd"><path d="M57.976 3.778a5.468 5.468 0 017.478-1.935l1.054.62a5.47 5.47 0 012.005 7.354 6.084 6.084 0 011.073 7.507l-6.784 11.52a1.017 1.017 0 11-1.752-1.033l6.783-11.52a4.045 4.045 0 00-.39-4.65l-9.86 16.743a2.139 2.139 0 01-2.527.939l-2.52 4.277a1.016 1.016 0 11-1.752-1.033l2.496-4.238-4.029-2.373-13.103 22.25a.22.22 0 00.077.299l3.689 2.172c.083.05.192.023.242-.062l8.217-13.952a1.016 1.016 0 111.752 1.032l-2.152 3.655v20.98a2.584 2.584 0 01-2.581 2.581H3.58A2.584 2.584 0 011 62.331V4.781a3.474 3.474 0 013.47-3.469h17.654a1.017 1.017 0 010 2.035H4.469c-.791 0-1.435.644-1.435 1.435V62.33c0 .297.25.547.547.547h41.811c.296 0 .547-.25.547-.547V44.804l-4.103 6.967c-.28.476-.729.814-1.263.952-.313.081-.64.092-.976.015l-1.983 3.368a2.717 2.717 0 01-3.715.961l-.38-.223a2.718 2.718 0 01-.96-3.716l1.988-3.376a2.098 2.098 0 01-.451-.855 2.088 2.088 0 01.223-1.594l2.018-3.426h-25.02a1.017 1.017 0 11-.001-2.034h26.22l8.403-14.27V16.774H35.092a2.583 2.583 0 01-2.58-2.581V3.347H26.87a1.017 1.017 0 010-2.034h6.658c.272 0 .536.114.72.297l10.551 10.552 2.877 2.878c.196.196.297.46.297.718v5.007zm-21.731 47.1L34.31 54.16a.688.688 0 00.24.93l.38.224a.69.69 0 00.93-.241l1.934-3.283-1.55-.913zm-17.257-1.682a1.675 1.675 0 012.238.054l3.29 3.094 1.538-1.313a1.467 1.467 0 011.84-.046l2.492 1.919a1.017 1.017 0 01-1.242 1.611l-2.123-1.635-1.396 1.191c-.67.572-1.66.548-2.302-.056l-3.258-3.064-4.14 3.532a1.016 1.016 0 11-1.32-1.547zm18.668-14.024a1.017 1.017 0 110 2.034h-26.34a1.017 1.017 0 010-2.034zm0-6.671a1.017 1.017 0 110 2.034h-26.34a1.017 1.017 0 010-2.034zM64.422 3.596a3.43 3.43 0 00-4.693 1.215L48.854 23.278c-.004.007-.016.026-.008.055.007.029.027.04.033.044l6.812 4.011c.048.028.11.012.139-.036L66.69 8.91a3.43 3.43 0 00-1.214-4.693zM37.656 21.83a1.017 1.017 0 110 2.034h-26.34a1.017 1.017 0 010-2.034zm-3.11-17.045v9.409c0 .296.25.546.546.546H44.5l-9.955-9.955z" fill="#000" fill-rule="nonzero" stroke="#fff" stroke-width=".8"/><path d="M47 16H36a2 2 0 01-2-2V3z" fill="#dbb95a"/></g></svg>