<svg height="66" width="58" xmlns="http://www.w3.org/2000/svg"><g fill="none" fill-rule="evenodd"><g fill="#000" fill-rule="nonzero" stroke="#fff" stroke-width=".6"><path d="M54.151 8.471h-3.038V4.103A3.108 3.108 0 0048.01 1H7.946a3.107 3.107 0 00-3.104 3.103v4.368H1.99a.937.937 0 000 1.875h2.852v4.368a3.107 3.107 0 003.103 3.104h1.36v2.988a3.727 3.727 0 003.723 3.723 3.7 3.7 0 001.848-.493v4.505a3.728 3.728 0 003.724 3.724 3.728 3.728 0 003.724-3.724V17.818h3.552a.937.937 0 000-1.875h-1.3c.338-.57.534-1.235.534-1.944V9.284c.57.339 1.235.533 1.944.533a3.823 3.823 0 003.819-3.82V2.876H48.01a1.23 1.23 0 011.228 1.228v10.612a1.23 1.23 0 01-1.228 1.228H30.25a.937.937 0 100 1.875h17.76a3.107 3.107 0 003.103-3.103v-4.369h3.038c.508 0 .922.413.922.92v9.567c0 .83-.556 1.576-1.352 1.814l-25.142 7.488a2.169 2.169 0 00-1.54 2.065v1.644h-4.198a2.396 2.396 0 00-2.393 2.393v1.29c0 1.21.903 2.21 2.07 2.369l-1.73 17.36C20.376 61.392 23.626 65 27.797 65c4.154 0 7.423-3.592 7.009-7.742l-.607-6.098a.938.938 0 00-1.866.186l.607 6.098c.302 3.032-2.083 5.681-5.143 5.681-3.048 0-5.447-2.636-5.144-5.681L24.4 39.92h6.794l.703 7.05a.938.938 0 001.866-.186l-.684-6.864h.207a2.395 2.395 0 002.392-2.392v-1.291a2.395 2.395 0 00-2.392-2.393h-4.371V32.2c0-.123.082-.233.199-.268l25.142-7.488a3.79 3.79 0 002.692-3.61v-9.567a2.8 2.8 0 00-2.797-2.797zM14.876 20.806a1.85 1.85 0 01-1.848 1.848 1.85 1.85 0 01-1.848-1.848v-2.988h3.697v2.988zm5.573 7.735c0 1.02-.83 1.849-1.849 1.849s-1.848-.83-1.848-1.849V17.818h3.697V28.54zm6.605-20.6a1.945 1.945 0 01-1.944-1.943.938.938 0 00-1.875 0v8a1.946 1.946 0 01-1.944 1.945H7.946a1.23 1.23 0 01-1.228-1.228V4.103c0-.677.55-1.228 1.228-1.228h21.052v3.123a1.946 1.946 0 01-1.944 1.944zm6.232 27.78c.28 0 .517.236.517.517v1.29a.524.524 0 01-.517.518H22.84a.524.524 0 01-.517-.517v-1.291c0-.28.237-.518.517-.518h10.445z"/><path d="M27.797 54.48a3.149 3.149 0 00-3.144 3.145 3.147 3.147 0 003.144 3.143 3.148 3.148 0 003.144-3.144 3.147 3.147 0 00-3.144-3.143zm0 4.413c-.7 0-1.269-.57-1.269-1.269a1.27 1.27 0 012.538 0c0 .7-.57 1.269-1.269 1.269z"/></g><path d="M9 2h21c-.203 3.69-.536 5.69-1 6-3 2-3.483-1.12-4 0-.728 1.578-1.062 3.912-1 7l-3 2v13c-.463.608-2.32 1-3 1-2 0-2.667-2.667-2-8-.465-1.341-1.912 0-3 0-2 0-3-2-3-6H8a2 2 0 01-2-2V5a3 3 0 013-3z" fill="#dbb95a"/></g></svg>