<?xml version="1.0" standalone="no"?>
<!DOCTYPE svg PUBLIC "-//W3C//DTD SVG 1.0//EN" "http://www.w3.org/TR/2001/REC-SVG-20010904/DTD/svg10.dtd">
<svg xmlns="http://www.w3.org/2000/svg" xmlns:xlink="http://www.w3.org/1999/xlink" id="body_1" width="100" height="100">

<g transform="matrix(4.166667 0 0 4.166667 0 0)">
	<g transform="matrix(1 0 0 1 0 0)">
	</g>
    <path transform="matrix(1 0 0 1 0 0)"  d="M0 0L24 0L24 24L0 24L0 0z" stroke="none" fill="none" />
	<g transform="matrix(1 0 0 1 8 4)">
	</g>
    <path transform="matrix(1 0 0 1 8 4)"  d="M4 8.127C 1.791 8.127 0 6.611 0 4.741L0 4.741L0 3.386C 0 1.516 1.791 0 4 0C 6.209 0 8 1.516 8 3.386L8 3.386L8 4.741C 8 6.611 6.209 8.127 4 8.127z" stroke="#DBB95A" stroke-width="2" fill="none" />
	<g transform="matrix(1 0 0 1 4 15.937)">
	</g>
    <path transform="matrix(1 0 0 1 4 15.937)"  d="M16 4.063L16 2.709C 16 1.213 14.209 0 12 0L12 0L4 0C 1.791 0 0 1.213 0 2.709L0 2.709L0 4.063" stroke="#DBB95A" stroke-width="2" fill="none" />
</g>
</svg>